# xmcd CD database file
#
# Track frame offsets:
#	151
#	25330
#	47768
#	77798
#	98343
#	119789
#	133648
#	155626
#	176225
#	199294
#	220910
#	243438
#	269831
#	294830
#
# Disc length: 4007 seconds
#
# Revision: 0
# Processed by: cddbd v1.5.2PL0 Copyright (c) Steve Scherf et al.
# Submitted via: CDex 1.70beta2
#
DISCID=d40fa50e
DTITLE=Pupy Y Los Que Son Son - Tranquilo Que Yo Controlo
DYEAR=1900
DGENRE=Salsa
TTITLE0=Si Me Quieres Conocer
TTITLE1=Se Parece A Aquel
TTITLE2=A La Italiana
TTITLE3=Un Poquito Al Revés
TTITLE4=Báilalo Hasta Fuera (La Machucadera)
TTITLE5=Vecina Présteme El Cubo
TTITLE6=Olvídala
TTITLE7=El Barniz
TTITLE8=Cuando Los Años Pasan (Casablanca)
TTITLE9=Desde Cero
TTITLE10=Ve Bajando
TTITLE11=Calla, Calla
TTITLE12=Nadie Puede Contra Esto
TTITLE13=Sie Me Quieres Conocer (bonus)
EXTD=
EXTT0=
EXTT1=
EXTT2=
EXTT3=
EXTT4=
EXTT5=
EXTT6=
EXTT7=
EXTT8=
EXTT9=
EXTT10=
EXTT11=
EXTT12=
EXTT13=
PLAYORDER=
